<svg width="100" height="100" viewBox="0 0 100 100" fill="none" xmlns="http://www.w3.org/2000/svg">
<path d="M55.6458 33.3405C55.6458 35.0664 57.0449 36.4655 58.7708 36.4655C60.4967 36.4655 61.8958 35.0664 61.8958 33.3405H55.6458ZM58.7708 16.6669L55.6458 16.6657V16.6669H58.7708ZM60.5653 13.242L58.7856 10.6733L58.7856 10.6733L60.5653 13.242ZM64.4023 12.7652L65.4996 9.83921L65.4992 9.83906L64.4023 12.7652ZM85.2443 20.581L84.1471 23.507L84.1474 23.5072L85.2443 20.581ZM87.9496 24.4868L84.8246 24.4848V24.4868H87.9496ZM84.8246 87.5297C84.8246 89.2556 86.2237 90.6547 87.9496 90.6547C89.6755 90.6547 91.0746 89.2556 91.0746 87.5297H84.8246ZM67.1076 87.5303V90.6553C68.8335 90.6553 70.2326 89.2562 70.2326 87.5303H67.1076ZM33.7604 87.5303H30.6354C30.6354 89.2562 32.0345 90.6553 33.7604 90.6553V87.5303ZM43.1406 33.3408C43.1406 35.0667 44.5397 36.4658 46.2656 36.4658C47.9915 36.4658 49.3906 35.0667 49.3906 33.3408H43.1406ZM18.1302 45.846C18.1302 47.5719 19.5293 48.971 21.2552 48.971C22.9811 48.971 24.3802 47.5719 24.3802 45.846H18.1302ZM36.8854 12.5C36.8854 10.7741 35.4863 9.375 33.7604 9.375C32.0345 9.375 30.6354 10.7741 30.6354 12.5H36.8854ZM30.6354 20.8368C30.6354 22.5627 32.0345 23.9618 33.7604 23.9618C35.4863 23.9618 36.8854 22.5627 36.8854 20.8368H30.6354ZM92.1181 90.6541C93.8439 90.6541 95.2431 89.255 95.2431 87.5291C95.2431 85.8032 93.8439 84.4041 92.1181 84.4041V90.6541ZM8.75 84.4041C7.02411 84.4041 5.625 85.8032 5.625 87.5291C5.625 89.255 7.02411 90.6541 8.75 90.6541V84.4041ZM44.1814 53.9757C42.4555 53.9757 41.0564 55.3748 41.0564 57.1007C41.0564 58.8266 42.4555 60.2257 44.1814 60.2257V53.9757ZM56.6866 60.2257C58.4125 60.2257 59.8116 58.8266 59.8116 57.1007C59.8116 55.3748 58.4125 53.9757 56.6866 53.9757V60.2257ZM44.1814 42.7208C42.4555 42.7208 41.0564 44.1199 41.0564 45.8458C41.0564 47.5717 42.4555 48.9708 44.1814 48.9708V42.7208ZM56.6866 48.9708C58.4125 48.9708 59.8116 47.5717 59.8116 45.8458C59.8116 44.1199 58.4125 42.7208 56.6866 42.7208V48.9708ZM44.1814 65.2306C42.4555 65.2306 41.0564 66.6297 41.0564 68.3556C41.0564 70.0814 42.4555 71.4806 44.1814 71.4806V65.2306ZM56.6866 71.4806C58.4125 71.4806 59.8116 70.0814 59.8116 68.3556C59.8116 66.6297 58.4125 65.2306 56.6866 65.2306V71.4806ZM9.79339 87.5294C9.79339 89.2552 11.1925 90.6544 12.9184 90.6544C14.6443 90.6544 16.0434 89.2552 16.0434 87.5294H9.79339ZM33.7604 48.9703C35.4863 48.9703 36.8854 47.5712 36.8854 45.8453C36.8854 44.1194 35.4863 42.7203 33.7604 42.7203V48.9703ZM61.8958 33.3405V16.6669H55.6458V33.3405H61.8958ZM61.8958 16.668C61.8959 16.3259 62.0638 16.0056 62.345 15.8108L58.7856 10.6733C56.8199 12.0352 55.6467 14.2743 55.6458 16.6657L61.8958 16.668ZM62.345 15.8108C62.6262 15.6159 62.9851 15.5713 63.3054 15.6914L65.4992 9.83906C63.2599 8.99967 60.7514 9.31138 58.7856 10.6733L62.345 15.8108ZM63.305 15.6913L84.1471 23.507L86.3416 17.655L65.4996 9.83921L63.305 15.6913ZM84.1474 23.5072C84.555 23.6599 84.8249 24.0496 84.8246 24.4848L91.0746 24.4887C91.0765 21.4465 89.1899 18.7226 86.3412 17.6548L84.1474 23.5072ZM84.8246 24.4868V87.5297H91.0746V24.4868H84.8246ZM38.7625 36.4661H62.1055V30.2161H38.7625V36.4661ZM62.1055 36.4661C63.1422 36.4661 63.9826 37.3065 63.9826 38.3431H70.2326C70.2326 33.8547 66.594 30.2161 62.1055 30.2161V36.4661ZM63.9826 38.3431V87.5303H70.2326V38.3431H63.9826ZM67.1076 84.4053H33.7604V90.6553H67.1076V84.4053ZM36.8854 87.5303V38.3431H30.6354V87.5303H36.8854ZM36.8854 38.3431C36.8854 37.3065 37.7258 36.4661 38.7625 36.4661V30.2161C34.274 30.2161 30.6354 33.8547 30.6354 38.3431H36.8854ZM49.3906 33.3408V25.004H43.1406V33.3408H49.3906ZM49.3906 25.004C49.3906 20.9759 46.1253 17.7106 42.0972 17.7106V23.9606C42.6735 23.9606 43.1406 24.4277 43.1406 25.004H49.3906ZM42.0972 17.7106H25.4236V23.9606H42.0972V17.7106ZM25.4236 17.7106C21.3956 17.7106 18.1302 20.9759 18.1302 25.004H24.3802C24.3802 24.4277 24.8474 23.9606 25.4236 23.9606V17.7106ZM18.1302 25.004V45.846H24.3802V25.004H18.1302ZM30.6354 12.5V20.8368H36.8854V12.5H30.6354ZM92.1181 84.4041H8.75V90.6541H92.1181V84.4041ZM44.1814 60.2257H56.6866V53.9757H44.1814V60.2257ZM44.1814 48.9708H56.6866V42.7208H44.1814V48.9708ZM44.1814 71.4806H56.6866V65.2306H44.1814V71.4806ZM16.0434 87.5294V50.0137H9.79339V87.5294H16.0434ZM16.0434 50.0137C16.0434 49.4375 16.5105 48.9703 17.0868 48.9703V42.7203C13.0588 42.7203 9.79339 45.9857 9.79339 50.0137H16.0434ZM17.0868 48.9703H33.7604V42.7203H17.0868V48.9703Z" fill="#FFB900"/>
</svg>
