<svg width="874" height="550" viewBox="0 0 874 550" fill="none" xmlns="http://www.w3.org/2000/svg">
<g filter="url(#filter0_d)">
<rect x="514.968" y="167.829" width="302.872" height="288.894" rx="18.6383" fill="#262835"/>
<rect x="516.133" y="168.994" width="300.543" height="286.564" rx="17.4734" stroke="#090B18" stroke-width="2.32979"/>
</g>
<g clip-path="url(#clip0)">
<ellipse cx="711.836" cy="311.111" rx="40.7713" ry="40.7712" fill="white"/>
<mask id="mask0" mask-type="alpha" maskUnits="userSpaceOnUse" x="671" y="270" width="82" height="82">
<path d="M752.607 311.111C752.607 333.628 734.353 351.882 711.836 351.882C689.318 351.882 671.064 333.628 671.064 311.111C671.064 288.593 689.318 270.339 711.836 270.339C734.353 270.339 752.607 288.593 752.607 311.111Z" fill="#C4C4C4"/>
</mask>
<g mask="url(#mask0)">
<path d="M775.997 278.737H647.283V289.462H775.997V278.737Z" fill="#D80027"/>
<path d="M775.997 300.191H647.283V310.916H775.997V300.191Z" fill="#D80027"/>
<path d="M775.997 321.638H647.283V332.363H775.997V321.638Z" fill="#D80027"/>
<path d="M775.997 343.092H647.283V353.817H775.997V343.092Z" fill="#D80027"/>
<path d="M711.637 268.011H647.281V314.216H711.637V268.011Z" fill="#1D3176"/>
<path d="M672.377 286.936L671.34 290.124H667.987L670.7 292.094L669.664 295.282L672.377 293.313L675.088 295.282L674.051 292.094L676.764 290.124H673.411L672.377 286.936Z" fill="white"/>
<path d="M673.411 301.631L672.377 298.442L671.34 301.631H667.987L670.7 303.601L669.664 306.789L672.377 304.819L675.088 306.789L674.051 303.601L676.764 301.631H673.411Z" fill="white"/>
<path d="M672.377 275.429L671.34 278.618H667.987L670.7 280.588L669.664 283.776L672.377 281.806L675.088 283.776L674.051 280.588L676.764 278.618H673.411L672.377 275.429Z" fill="white"/>
<path d="M686.545 286.936L685.509 290.124H682.156L684.869 292.094L683.833 295.282L686.545 293.313L689.257 295.282L688.22 292.094L690.933 290.124H687.58L686.545 286.936Z" fill="white"/>
<path d="M687.58 301.631L686.545 298.442L685.509 301.631H682.156L684.869 303.601L683.833 306.789L686.545 304.819L689.257 306.789L688.22 303.601L690.933 301.631H687.58Z" fill="white"/>
<path d="M701.753 301.631L700.718 298.442L699.681 301.631H696.329L699.041 303.601L698.005 306.789L700.718 304.819L703.429 306.789L702.393 303.601L705.105 301.631H701.753Z" fill="white"/>
<path d="M700.718 286.936L699.681 290.124H696.329L699.041 292.094L698.005 295.282L700.718 293.313L703.429 295.282L702.393 292.094L705.105 290.124H701.753L700.718 286.936Z" fill="white"/>
<path d="M686.545 275.429L685.509 278.618H682.156L684.869 280.588L683.833 283.776L686.545 281.806L689.257 283.776L688.22 280.588L690.933 278.618H687.58L686.545 275.429Z" fill="white"/>
<path d="M700.718 275.429L699.681 278.618H696.329L699.041 280.588L698.005 283.776L700.718 281.806L703.429 283.776L702.393 280.588L705.105 278.618H701.753L700.718 275.429Z" fill="white"/>
</g>
<path d="M749.186 324.297L749.184 324.3C743.758 339.708 729.063 350.717 711.836 350.717C694.608 350.717 679.913 339.708 674.487 324.3L674.486 324.297C673.022 320.181 672.229 315.747 672.229 311.111C672.229 306.474 673.022 302.04 674.486 297.924L674.487 297.921C679.913 282.513 694.608 271.504 711.836 271.504C729.063 271.504 743.758 282.513 749.184 297.921L749.186 297.924C750.65 302.04 751.442 306.474 751.442 311.111C751.442 315.747 750.65 320.181 749.186 324.297Z" stroke="#D4D5DD" stroke-width="2.32979"/>
</g>
<g filter="url(#filter1_d)">
<rect x="56" y="167.829" width="302.872" height="288.894" rx="18.6383" fill="#262835"/>
<rect x="57.1649" y="168.994" width="300.543" height="286.564" rx="17.4734" stroke="#090B18" stroke-width="2.32979"/>
</g>
<g clip-path="url(#clip1)">
<path d="M162.005 351.882C184.523 351.882 202.776 333.628 202.776 311.111C202.776 288.593 184.523 270.339 162.005 270.339C139.488 270.339 121.234 288.593 121.234 311.111C121.234 333.628 139.488 351.882 162.005 351.882Z" fill="#003399"/>
<path d="M162.006 285.629L163.361 289.8H167.747L164.199 292.378L165.554 296.55L162.006 293.972L158.457 296.55L159.813 292.378L156.264 289.8H160.65L162.006 285.629Z" fill="#FFDA44"/>
<path d="M143.987 293.092L147.895 295.084L150.996 291.982L150.31 296.314L154.218 298.306L149.886 298.992L149.2 303.324L147.209 299.416L142.877 300.102L145.978 297.001L143.987 293.092Z" fill="#FFDA44"/>
<path d="M136.523 311.111L140.695 309.755L140.695 305.37L143.273 308.918L147.444 307.563L144.866 311.111L147.444 314.659L143.273 313.304L140.695 316.852V312.466L136.523 311.111Z" fill="#FFDA44"/>
<path d="M143.987 329.13L145.978 325.222L142.877 322.121L147.209 322.807L149.2 318.899L149.886 323.231L154.218 323.917L150.31 325.908L150.996 330.24L147.895 327.139L143.987 329.13Z" fill="#FFDA44"/>
<path d="M162.006 336.593L160.65 332.422H156.264L159.813 329.844L158.457 325.672L162.006 328.25L165.554 325.672L164.199 329.844L167.747 332.422H163.361L162.006 336.593Z" fill="#FFDA44"/>
<path d="M180.024 329.13L176.116 327.139L173.015 330.241L173.701 325.908L169.793 323.917L174.125 323.231L174.812 318.899L176.803 322.807L181.135 322.121L178.033 325.222L180.024 329.13Z" fill="#FFDA44"/>
<path d="M187.488 311.111L183.316 312.466V316.852L180.739 313.304L176.567 314.659L179.145 311.111L176.567 307.563L180.739 308.918L183.316 305.37L183.316 309.756L187.488 311.111Z" fill="#FFDA44"/>
<path d="M180.024 293.092L178.033 297.001L181.135 300.102L176.802 299.415L174.812 303.324L174.125 298.992L169.793 298.306L173.701 296.314L173.015 291.982L176.116 295.084L180.024 293.092Z" fill="#FFDA44"/>
</g>
<g filter="url(#filter2_d)">
<rect x="172.489" y="56" width="519.543" height="438" rx="18.6383" fill="#363842"/>
<rect x="173.654" y="57.1649" width="517.213" height="435.67" rx="17.4734" stroke="#090B18" stroke-width="2.32979"/>
</g>
<path d="M345.033 342.587L348.435 342.028V341.795C348.435 338.603 346.151 336.529 342.843 336.529C339.372 336.529 337.205 338.673 337.205 341.632C337.205 342.983 337.531 344.055 337.927 344.963H336.716V347.177H338.929C339.069 347.526 339.139 347.876 339.139 348.202C339.139 348.971 338.836 349.576 338.09 349.996C336.296 350.601 335.528 351.883 335.528 351.883L337.415 353.886C337.415 353.886 338.277 352.721 339.628 352.721C341.445 352.721 342.703 353.77 344.8 353.77C347.2 353.77 348.341 352.745 349.11 351.813L347.27 349.716C346.78 350.345 346.151 350.741 345.243 350.741C343.822 350.741 342.82 350.159 341.492 349.856C341.841 349.367 342.098 348.668 342.098 347.689C342.098 347.526 342.074 347.34 342.074 347.177H345.08V344.963H341.469C341.049 343.961 340.56 343.076 340.56 341.771C340.56 340.397 341.538 339.558 342.843 339.558C344.358 339.558 345.08 340.56 345.08 341.841C345.08 342.191 345.056 342.447 345.033 342.587ZM355.914 353.77C359.479 353.77 361.645 351.813 361.645 348.924C361.645 347.41 360.97 345.779 359.455 344.87C360.713 344.078 361.296 342.727 361.296 341.352C361.296 338.603 359.246 336.529 355.914 336.529C352.582 336.529 350.579 338.556 350.579 341.306C350.579 342.657 351.138 344.055 352.373 344.87C350.858 345.755 350.183 347.41 350.183 348.924C350.183 351.813 352.349 353.77 355.914 353.77ZM355.914 343.472C354.539 343.472 353.747 342.61 353.747 341.399C353.747 340.467 354.4 339.442 355.914 339.442C357.428 339.442 358.127 340.513 358.127 341.445C358.127 342.657 357.289 343.472 355.914 343.472ZM355.914 346.524C357.382 346.524 358.244 347.456 358.244 348.668C358.244 349.739 357.498 350.811 355.914 350.811C354.33 350.811 353.584 349.739 353.584 348.668C353.584 347.456 354.446 346.524 355.914 346.524ZM369.474 353.77C373.505 353.77 375.485 350.159 375.485 345.15C375.485 340.141 373.505 336.529 369.474 336.529C365.444 336.529 363.463 340.141 363.463 345.15C363.463 350.159 365.444 353.77 369.474 353.77ZM369.474 339.745C371.198 339.745 372.037 341.399 372.037 345.15C372.037 348.901 371.198 350.555 369.474 350.555C367.75 350.555 366.911 348.901 366.911 345.15C366.911 341.399 367.75 339.745 369.474 339.745ZM381.45 349.669H377.792L376.464 356.729H379.423L381.45 349.669ZM389.086 353.77C393.117 353.77 395.097 350.159 395.097 345.15C395.097 340.141 393.117 336.529 389.086 336.529C385.056 336.529 383.075 340.141 383.075 345.15C383.075 350.159 385.056 353.77 389.086 353.77ZM389.086 339.745C390.81 339.745 391.649 341.399 391.649 345.15C391.649 348.901 390.81 350.555 389.086 350.555C387.362 350.555 386.523 348.901 386.523 345.15C386.523 341.399 387.362 339.745 389.086 339.745ZM402.646 353.77C406.677 353.77 408.657 350.159 408.657 345.15C408.657 340.141 406.677 336.529 402.646 336.529C398.616 336.529 396.635 340.141 396.635 345.15C396.635 350.159 398.616 353.77 402.646 353.77ZM402.646 339.745C404.37 339.745 405.209 341.399 405.209 345.15C405.209 348.901 404.37 350.555 402.646 350.555C400.922 350.555 400.083 348.901 400.083 345.15C400.083 341.399 400.922 339.745 402.646 339.745ZM416.206 353.77C420.237 353.77 422.217 350.159 422.217 345.15C422.217 340.141 420.237 336.529 416.206 336.529C412.176 336.529 410.195 340.141 410.195 345.15C410.195 350.159 412.176 353.77 416.206 353.77ZM416.206 339.745C417.93 339.745 418.769 341.399 418.769 345.15C418.769 348.901 417.93 350.555 416.206 350.555C414.482 350.555 413.644 348.901 413.644 345.15C413.644 341.399 414.482 339.745 416.206 339.745ZM426.015 353.607C427.297 353.607 428.252 352.698 428.252 351.393C428.252 350.112 427.297 349.157 426.015 349.157C424.711 349.157 423.779 350.112 423.779 351.393C423.779 352.698 424.711 353.607 426.015 353.607ZM435.818 353.77C439.849 353.77 441.829 350.159 441.829 345.15C441.829 340.141 439.849 336.529 435.818 336.529C431.788 336.529 429.808 340.141 429.808 345.15C429.808 350.159 431.788 353.77 435.818 353.77ZM435.818 339.745C437.542 339.745 438.381 341.399 438.381 345.15C438.381 348.901 437.542 350.555 435.818 350.555C434.094 350.555 433.256 348.901 433.256 345.15C433.256 341.399 434.094 339.745 435.818 339.745ZM449.379 353.77C453.409 353.77 455.389 350.159 455.389 345.15C455.389 340.141 453.409 336.529 449.379 336.529C445.348 336.529 443.368 340.141 443.368 345.15C443.368 350.159 445.348 353.77 449.379 353.77ZM449.379 339.745C451.103 339.745 451.941 341.399 451.941 345.15C451.941 348.901 451.103 350.555 449.379 350.555C447.654 350.555 446.816 348.901 446.816 345.15C446.816 341.399 447.654 339.745 449.379 339.745ZM471.507 339.768C473.72 339.768 475.397 340.933 475.887 343.006L479.381 342.284C478.496 338.696 475.374 336.529 471.507 336.529C466.754 336.529 463.189 339.954 463.189 345.126C463.189 350.298 466.661 353.677 471.274 353.677C473.697 353.677 475.514 352.768 476.469 351.417V353.42H479.498V344.264H472.345V347.316H476.213C475.747 349.553 474.023 350.625 471.507 350.625C468.525 350.625 466.777 348.388 466.777 345.126C466.777 341.865 468.478 339.768 471.507 339.768ZM482.865 353.42H490.157C493.745 353.42 495.586 351.58 495.586 348.738C495.586 346.967 494.561 345.662 493.046 345.08C494.467 344.451 495.353 343.146 495.353 341.422C495.353 338.906 493.652 336.879 489.854 336.879H482.865V353.42ZM486.173 339.931H489.831C491.322 339.931 491.928 340.746 491.928 341.725C491.928 342.913 491.136 343.519 489.831 343.519H486.173V339.931ZM486.173 346.594H490.064C491.509 346.594 492.161 347.363 492.161 348.481C492.161 349.646 491.509 350.368 490.064 350.368H486.173V346.594ZM501.76 353.42V347.153H505.442C509.286 347.153 511.08 344.917 511.08 342.028C511.08 339.139 509.425 336.879 505.442 336.879H498.359V353.42H501.76ZM505.442 344.031H501.76V340.001H505.442C507.003 340.001 507.678 340.84 507.678 342.028C507.678 343.216 507.003 344.031 505.442 344.031Z" fill="#F7F8FC"/>
<path d="M335.621 326.958H337.997L339.395 323.416H347.433L348.831 326.958H351.277L344.637 310.416H342.237L335.621 326.958ZM343.379 313.165H343.426L346.664 321.366H340.141L343.379 313.165ZM353.182 326.958H355.372V309.484H353.182V326.958ZM359.098 326.958H361.288V309.484H359.098V326.958ZM370.325 327.237C374.123 327.237 376.476 324.302 376.476 320.993C376.476 317.662 374.123 314.703 370.325 314.703C366.528 314.703 364.175 317.662 364.175 320.993C364.175 324.302 366.528 327.237 370.325 327.237ZM366.365 320.993C366.365 318.454 367.972 316.66 370.325 316.66C372.678 316.66 374.286 318.454 374.286 320.993C374.286 323.486 372.678 325.303 370.325 325.303C367.972 325.303 366.365 323.486 366.365 320.993ZM384.449 325.303C382.212 325.303 380.721 323.486 380.721 320.993C380.721 318.454 382.212 316.66 384.449 316.66C386.173 316.66 387.384 317.638 387.827 319.129L389.9 318.5C389.225 316.45 387.454 314.703 384.472 314.703C380.884 314.703 378.531 317.592 378.531 320.993C378.531 324.348 380.884 327.237 384.472 327.237C387.454 327.237 389.225 325.49 389.9 323.44L387.827 322.834C387.384 324.302 386.173 325.303 384.449 325.303ZM395.968 327.237C397.832 327.237 399.463 326.538 400.372 325.35C400.605 326.328 401.513 327.051 402.725 327.051C403.261 327.051 403.54 326.958 403.54 326.958V325.187C403.54 325.187 403.447 325.21 403.214 325.21C402.632 325.21 402.305 324.907 402.305 324.232V319.199C402.305 316.497 400.721 314.703 397.226 314.703C393.965 314.703 392.497 316.31 392.101 318.267L394.198 318.64C394.454 317.219 395.526 316.543 397.157 316.543C399.137 316.543 400.162 317.405 400.162 319.153V319.386L396.318 319.922C393.196 320.341 391.775 321.669 391.775 323.649C391.775 325.746 393.079 327.237 395.968 327.237ZM396.551 321.622L400.162 321.086V322.158C400.162 323.812 398.881 325.49 396.341 325.49C394.943 325.49 393.918 324.977 393.918 323.626C393.918 322.624 394.524 321.925 396.551 321.622ZM410.932 326.888V324.977C410.932 324.977 410.466 325.094 409.977 325.094C408.929 325.094 408.486 324.535 408.486 323.44V316.776H410.979V314.982H408.486V311.721H406.296V314.982H404.222V316.776H406.296V323.626C406.296 325.839 407.368 327.004 409.581 327.004C410.466 327.004 410.932 326.888 410.932 326.888ZM423.616 323.789L421.683 323.137C421.123 324.488 419.912 325.327 418.328 325.327C416.091 325.327 414.693 323.766 414.507 321.599H424.036C424.036 321.599 424.059 321.203 424.059 320.877C424.059 317.429 421.822 314.703 418.258 314.703C414.67 314.703 412.34 317.568 412.34 320.97C412.34 324.418 414.553 327.237 418.281 327.237C420.844 327.237 422.778 325.839 423.616 323.789ZM418.258 316.567C420.331 316.567 421.683 317.918 421.892 319.922H414.553C414.833 317.988 416.184 316.567 418.258 316.567ZM435.844 309.484V316.87C435.121 315.635 433.723 314.703 431.697 314.703C428.085 314.703 426.105 317.615 426.105 320.993C426.105 324.325 428.085 327.237 431.697 327.237C433.723 327.237 435.191 326.375 435.983 324.977V326.958H438.034V309.484H435.844ZM435.937 320.993C435.937 323.37 434.539 325.303 432.139 325.303C429.739 325.303 428.295 323.37 428.295 320.993C428.295 318.547 429.739 316.66 432.139 316.66C434.539 316.66 435.937 318.547 435.937 320.993ZM452.932 326.888V324.977C452.932 324.977 452.466 325.094 451.977 325.094C450.929 325.094 450.486 324.535 450.486 323.44V316.776H452.979V314.982H450.486V311.721H448.296V314.982H446.222V316.776H448.296V323.626C448.296 325.839 449.368 327.004 451.581 327.004C452.466 327.004 452.932 326.888 452.932 326.888ZM460.491 327.237C464.288 327.237 466.641 324.302 466.641 320.993C466.641 317.662 464.288 314.703 460.491 314.703C456.693 314.703 454.34 317.662 454.34 320.993C454.34 324.302 456.693 327.237 460.491 327.237ZM456.53 320.993C456.53 318.454 458.138 316.66 460.491 316.66C462.844 316.66 464.451 318.454 464.451 320.993C464.451 323.486 462.844 325.303 460.491 325.303C458.138 325.303 456.53 323.486 456.53 320.993ZM475.89 326.958H482.483C486.071 326.958 488.052 325.303 488.052 322.391C488.052 320.504 486.933 319.106 485.232 318.57C486.793 318.011 487.725 316.613 487.725 314.866C487.725 312.303 486.071 310.416 482.274 310.416H475.89V326.958ZM478.103 312.466H482.32C484.44 312.466 485.489 313.398 485.489 315.006C485.489 316.846 484.231 317.545 482.32 317.545H478.103V312.466ZM478.103 319.595H482.507C484.557 319.595 485.815 320.504 485.815 322.251C485.815 324.069 484.557 324.907 482.483 324.907H478.103V319.595ZM499.162 314.982V321.972C499.162 324.232 497.834 325.35 495.994 325.35C494.083 325.35 493.291 324.138 493.291 322.228V314.982H491.101V322.601C491.101 325.327 492.592 327.237 495.528 327.237C497.648 327.237 498.859 326.165 499.302 325.303V326.958H501.352V314.982H499.162ZM513.973 309.484V316.87C513.251 315.635 511.853 314.703 509.826 314.703C506.215 314.703 504.235 317.615 504.235 320.993C504.235 324.325 506.215 327.237 509.826 327.237C511.853 327.237 513.321 326.375 514.113 324.977V326.958H516.163V309.484H513.973ZM514.066 320.993C514.066 323.37 512.669 325.303 510.269 325.303C507.869 325.303 506.425 323.37 506.425 320.993C506.425 318.547 507.869 316.66 510.269 316.66C512.669 316.66 514.066 318.547 514.066 320.993ZM524.474 323.416C527.433 323.416 529.273 321.529 529.273 319.06C529.273 318.43 529.134 317.848 528.924 317.312C528.877 317.219 528.808 316.986 528.808 316.613C528.808 315.821 529.39 315.355 530.182 315.355C530.578 315.355 530.765 315.378 530.765 315.378V313.445C530.741 313.445 530.508 313.421 530.135 313.421C528.738 313.421 527.596 314.19 527.2 315.378C526.454 314.959 525.546 314.703 524.474 314.703C521.515 314.703 519.698 316.59 519.698 319.06C519.698 320.294 520.117 321.319 520.91 322.088C520.187 322.484 519.395 323.253 519.395 324.535C519.395 325.233 519.651 326.095 520.397 326.631C520.001 326.888 519.092 327.61 519.092 328.984C519.092 331.081 520.63 332.269 524.614 332.269C528.714 332.269 530.368 330.429 530.368 328.518C530.368 326.701 529.343 325.21 526.524 325.21H522.377C521.702 325.21 521.329 324.837 521.329 324.232C521.329 323.346 522.191 322.997 522.284 322.974C522.913 323.253 523.682 323.416 524.474 323.416ZM524.474 321.552C522.773 321.552 521.748 320.574 521.748 319.06C521.748 317.568 522.773 316.567 524.474 316.567C526.198 316.567 527.223 317.568 527.223 319.06C527.223 320.574 526.198 321.552 524.474 321.552ZM522.005 327.19H526.571C527.573 327.19 528.318 327.587 528.318 328.542C528.318 329.73 527.107 330.359 524.591 330.359C522.051 330.359 521.096 329.846 521.096 328.658C521.096 328.099 521.445 327.47 522.005 327.19ZM543.018 323.789L541.084 323.137C540.525 324.488 539.314 325.327 537.729 325.327C535.493 325.327 534.095 323.766 533.908 321.599H543.437C543.437 321.599 543.461 321.203 543.461 320.877C543.461 317.429 541.224 314.703 537.659 314.703C534.072 314.703 531.742 317.568 531.742 320.97C531.742 324.418 533.955 327.237 537.683 327.237C540.245 327.237 542.179 325.839 543.018 323.789ZM537.659 316.567C539.733 316.567 541.084 317.918 541.294 319.922H533.955C534.235 317.988 535.586 316.567 537.659 316.567ZM551.448 326.888V324.977C551.448 324.977 550.982 325.094 550.492 325.094C549.444 325.094 549.001 324.535 549.001 323.44V316.776H551.494V314.982H549.001V311.721H546.811V314.982H544.738V316.776H546.811V323.626C546.811 325.839 547.883 327.004 550.096 327.004C550.982 327.004 551.448 326.888 551.448 326.888ZM555.039 323.23L552.919 323.603C553.199 325.56 554.597 327.237 557.882 327.237C561.167 327.237 562.751 325.536 562.751 323.603C562.751 318.663 555.669 321.11 555.669 318.267C555.669 317.289 556.484 316.543 558.091 316.543C559.746 316.543 560.538 317.499 560.654 318.57L562.728 318.058C562.402 316.52 561.19 314.703 558.161 314.703C555.272 314.703 553.572 316.427 553.572 318.337C553.572 323.23 560.654 320.69 560.654 323.696C560.654 324.721 559.676 325.397 557.952 325.397C556.088 325.397 555.156 324.511 555.039 323.23Z" fill="#BCBCC9"/>
<rect x="293.638" y="307.899" width="23.2979" height="23.2979" rx="11.6489" fill="#7C7E8D"/>
<path d="M345.033 421.613L348.435 421.054V420.821C348.435 417.629 346.151 415.555 342.843 415.555C339.372 415.555 337.205 417.699 337.205 420.658C337.205 422.009 337.531 423.081 337.927 423.989H336.716V426.202H338.929C339.069 426.552 339.139 426.901 339.139 427.228C339.139 427.996 338.836 428.602 338.09 429.022C336.296 429.627 335.528 430.909 335.528 430.909L337.415 432.912C337.415 432.912 338.277 431.747 339.628 431.747C341.445 431.747 342.703 432.796 344.8 432.796C347.2 432.796 348.341 431.771 349.11 430.839L347.27 428.742C346.78 429.371 346.151 429.767 345.243 429.767C343.822 429.767 342.82 429.185 341.492 428.882C341.841 428.392 342.098 427.694 342.098 426.715C342.098 426.552 342.074 426.366 342.074 426.202H345.08V423.989H341.469C341.049 422.987 340.56 422.102 340.56 420.797C340.56 419.423 341.538 418.584 342.843 418.584C344.358 418.584 345.08 419.586 345.08 420.867C345.08 421.217 345.056 421.473 345.033 421.613ZM353.258 427.437L350.066 428.09C350.462 430.955 352.606 432.796 355.844 432.796C359.315 432.796 361.692 430.466 361.692 427.577C361.692 425.9 360.97 424.548 359.269 423.896C360.83 423.22 361.505 421.892 361.505 420.425C361.505 417.536 359.385 415.555 355.984 415.555C352.722 415.555 350.649 417.629 350.369 420.355L353.608 420.914C353.654 419.772 354.33 418.607 355.984 418.607C357.498 418.607 358.22 419.516 358.22 420.634C358.22 421.776 357.475 422.568 355.821 422.568H354.283V425.387H355.774C357.591 425.387 358.314 426.319 358.314 427.577C358.314 428.835 357.358 429.744 355.844 429.744C354.19 429.744 353.375 428.742 353.258 427.437ZM363.789 421.287L367.144 421.753C367.121 421.613 367.121 421.357 367.121 421.1C367.121 419.679 367.843 418.677 369.358 418.677C370.662 418.677 371.594 419.493 371.594 420.727C371.594 421.683 371.338 422.428 370.359 423.36L363.883 429.651V432.446H375.275V429.324H368.519L372.27 426.016C374.297 424.222 374.996 422.824 374.996 420.658C374.996 417.699 372.829 415.555 369.358 415.555C366.049 415.555 363.766 417.722 363.766 420.914C363.766 421.03 363.789 421.287 363.789 421.287ZM383.034 432.796C387.065 432.796 389.045 429.185 389.045 424.176C389.045 419.167 387.065 415.555 383.034 415.555C379.004 415.555 377.023 419.167 377.023 424.176C377.023 429.185 379.004 432.796 383.034 432.796ZM383.034 418.77C384.758 418.77 385.597 420.425 385.597 424.176C385.597 427.927 384.758 429.581 383.034 429.581C381.31 429.581 380.471 427.927 380.471 424.176C380.471 420.425 381.31 418.77 383.034 418.77ZM395.01 428.695H391.352L390.024 435.755H392.983L395.01 428.695ZM402.646 432.796C406.677 432.796 408.657 429.185 408.657 424.176C408.657 419.167 406.677 415.555 402.646 415.555C398.616 415.555 396.635 419.167 396.635 424.176C396.635 429.185 398.616 432.796 402.646 432.796ZM402.646 418.77C404.37 418.77 405.209 420.425 405.209 424.176C405.209 427.927 404.37 429.581 402.646 429.581C400.922 429.581 400.083 427.927 400.083 424.176C400.083 420.425 400.922 418.77 402.646 418.77ZM416.206 432.796C420.237 432.796 422.217 429.185 422.217 424.176C422.217 419.167 420.237 415.555 416.206 415.555C412.176 415.555 410.195 419.167 410.195 424.176C410.195 429.185 412.176 432.796 416.206 432.796ZM416.206 418.77C417.93 418.77 418.769 420.425 418.769 424.176C418.769 427.927 417.93 429.581 416.206 429.581C414.482 429.581 413.644 427.927 413.644 424.176C413.644 420.425 414.482 418.77 416.206 418.77ZM429.766 432.796C433.797 432.796 435.777 429.185 435.777 424.176C435.777 419.167 433.797 415.555 429.766 415.555C425.736 415.555 423.756 419.167 423.756 424.176C423.756 429.185 425.736 432.796 429.766 432.796ZM429.766 418.77C431.49 418.77 432.329 420.425 432.329 424.176C432.329 427.927 431.49 429.581 429.766 429.581C428.042 429.581 427.204 427.927 427.204 424.176C427.204 420.425 428.042 418.77 429.766 418.77ZM439.576 432.633C440.857 432.633 441.812 431.724 441.812 430.419C441.812 429.138 440.857 428.183 439.576 428.183C438.271 428.183 437.339 429.138 437.339 430.419C437.339 431.724 438.271 432.633 439.576 432.633ZM449.379 432.796C453.409 432.796 455.389 429.185 455.389 424.176C455.389 419.167 453.409 415.555 449.379 415.555C445.348 415.555 443.368 419.167 443.368 424.176C443.368 429.185 445.348 432.796 449.379 432.796ZM449.379 418.77C451.103 418.77 451.941 420.425 451.941 424.176C451.941 427.927 451.103 429.581 449.379 429.581C447.654 429.581 446.816 427.927 446.816 424.176C446.816 420.425 447.654 418.77 449.379 418.77ZM462.939 432.796C466.969 432.796 468.949 429.185 468.949 424.176C468.949 419.167 466.969 415.555 462.939 415.555C458.908 415.555 456.928 419.167 456.928 424.176C456.928 429.185 458.908 432.796 462.939 432.796ZM462.939 418.77C464.663 418.77 465.501 420.425 465.501 424.176C465.501 427.927 464.663 429.581 462.939 429.581C461.215 429.581 460.376 427.927 460.376 424.176C460.376 420.425 461.215 418.77 462.939 418.77ZM485.067 418.794C487.28 418.794 488.958 419.959 489.447 422.032L492.942 421.31C492.056 417.722 488.934 415.555 485.067 415.555C480.314 415.555 476.749 418.98 476.749 424.152C476.749 429.324 480.221 432.703 484.834 432.703C487.257 432.703 489.074 431.794 490.029 430.443V432.446H493.058V423.29H485.906V426.342H489.773C489.307 428.579 487.583 429.651 485.067 429.651C482.085 429.651 480.337 427.414 480.337 424.152C480.337 420.891 482.038 418.794 485.067 418.794ZM496.425 432.446H503.717C507.305 432.446 509.146 430.606 509.146 427.763C509.146 425.993 508.121 424.688 506.606 424.106C508.027 423.477 508.913 422.172 508.913 420.448C508.913 417.932 507.212 415.905 503.414 415.905H496.425V432.446ZM499.733 418.957H503.391C504.882 418.957 505.488 419.772 505.488 420.751C505.488 421.939 504.696 422.545 503.391 422.545H499.733V418.957ZM499.733 425.62H503.624C505.069 425.62 505.721 426.389 505.721 427.507C505.721 428.672 505.069 429.394 503.624 429.394H499.733V425.62ZM515.321 432.446V426.179H519.002C522.846 426.179 524.64 423.943 524.64 421.054C524.64 418.165 522.986 415.905 519.002 415.905H511.919V432.446H515.321ZM519.002 423.057H515.321V419.027H519.002C520.563 419.027 521.238 419.865 521.238 421.054C521.238 422.242 520.563 423.057 519.002 423.057Z" fill="#F7F8FC"/>
<path d="M335.621 405.335H337.997L339.395 401.794H347.433L348.831 405.335H351.277L344.637 388.794H342.237L335.621 405.335ZM343.379 391.543H343.426L346.664 399.744H340.141L343.379 391.543ZM360.7 393.36L356.949 402.773L353.267 393.36H350.938L355.877 405.335H357.997L362.959 393.36H360.7ZM368.097 405.615C369.961 405.615 371.592 404.916 372.501 403.728C372.734 404.706 373.642 405.429 374.854 405.429C375.39 405.429 375.669 405.335 375.669 405.335V403.565C375.669 403.565 375.576 403.588 375.343 403.588C374.761 403.588 374.434 403.285 374.434 402.61V397.577C374.434 394.875 372.85 393.081 369.355 393.081C366.094 393.081 364.626 394.688 364.23 396.645L366.327 397.018C366.583 395.597 367.655 394.921 369.286 394.921C371.266 394.921 372.291 395.783 372.291 397.531V397.764L368.447 398.299C365.325 398.719 363.904 400.047 363.904 402.027C363.904 404.124 365.208 405.615 368.097 405.615ZM368.68 400L372.291 399.464V400.536C372.291 402.19 371.01 403.868 368.47 403.868C367.072 403.868 366.047 403.355 366.047 402.004C366.047 401.002 366.653 400.303 368.68 400ZM379.304 390.867C380.143 390.867 380.749 390.285 380.749 389.446C380.749 388.608 380.143 388.002 379.304 388.002C378.466 388.002 377.86 388.608 377.86 389.446C377.86 390.285 378.466 390.867 379.304 390.867ZM378.209 393.36V405.335H380.399V393.36H378.209ZM384.125 405.335H386.315V387.862H384.125V405.335ZM393.488 405.615C395.352 405.615 396.983 404.916 397.892 403.728C398.125 404.706 399.033 405.429 400.245 405.429C400.781 405.429 401.06 405.335 401.06 405.335V403.565C401.06 403.565 400.967 403.588 400.734 403.588C400.152 403.588 399.825 403.285 399.825 402.61V397.577C399.825 394.875 398.241 393.081 394.746 393.081C391.485 393.081 390.017 394.688 389.621 396.645L391.718 397.018C391.974 395.597 393.046 394.921 394.677 394.921C396.657 394.921 397.682 395.783 397.682 397.531V397.764L393.838 398.299C390.716 398.719 389.295 400.047 389.295 402.027C389.295 404.124 390.599 405.615 393.488 405.615ZM394.071 400L397.682 399.464V400.536C397.682 402.19 396.401 403.868 393.861 403.868C392.463 403.868 391.438 403.355 391.438 402.004C391.438 401.002 392.044 400.303 394.071 400ZM405.79 395.247V387.862H403.6V405.335H405.651V403.355C406.466 404.753 407.934 405.615 409.937 405.615C413.572 405.615 415.552 402.703 415.552 399.371C415.552 395.993 413.572 393.081 409.937 393.081C407.934 393.081 406.513 394.013 405.79 395.247ZM405.72 399.371C405.72 396.925 407.118 395.038 409.518 395.038C411.918 395.038 413.362 396.925 413.362 399.371C413.362 401.748 411.918 403.681 409.518 403.681C407.118 403.681 405.72 401.748 405.72 399.371ZM418.435 405.335H420.625V387.862H418.435V405.335ZM434.787 402.167L432.854 401.515C432.295 402.866 431.083 403.705 429.499 403.705C427.262 403.705 425.864 402.144 425.678 399.977H435.207C435.207 399.977 435.23 399.581 435.23 399.255C435.23 395.807 432.994 393.081 429.429 393.081C425.841 393.081 423.511 395.946 423.511 399.348C423.511 402.796 425.725 405.615 429.452 405.615C432.015 405.615 433.949 404.217 434.787 402.167ZM429.429 394.945C431.502 394.945 432.854 396.296 433.063 398.299H425.725C426.004 396.366 427.355 394.945 429.429 394.945Z" fill="#FFB900"/>
<rect x="293.638" y="385.436" width="23.2979" height="23.2979" rx="11.6489" fill="#FFB900"/>
<g clip-path="url(#clip2)">
<path d="M209.766 307.616C209.766 297.322 218.11 288.978 228.404 288.978V288.978C238.698 288.978 247.042 297.322 247.042 307.616V438.084C247.042 448.378 238.698 456.722 228.404 456.722V456.722C218.11 456.722 209.766 448.378 209.766 438.084V307.616Z" fill="#7C7E8D"/>
<path d="M209.766 322.526L247.042 322.526L247.042 438.084C247.042 448.377 238.698 456.722 228.404 456.722V456.722C218.11 456.722 209.766 448.377 209.766 438.084L209.766 322.526Z" fill="#FFB900"/>
</g>
<path d="M224.9 218.464L230.343 217.57V217.197C230.343 212.09 226.69 208.772 221.396 208.772C215.842 208.772 212.375 212.202 212.375 216.936C212.375 219.098 212.897 220.813 213.531 222.266H211.593V225.808H215.134C215.358 226.367 215.469 226.926 215.469 227.448C215.469 228.678 214.985 229.647 213.792 230.318C210.922 231.287 209.692 233.338 209.692 233.338L212.711 236.543C212.711 236.543 214.09 234.68 216.252 234.68C219.16 234.68 221.173 236.357 224.528 236.357C228.367 236.357 230.194 234.717 231.424 233.226L228.479 229.871C227.696 230.877 226.69 231.511 225.236 231.511C222.962 231.511 221.359 230.579 219.234 230.095C219.794 229.312 220.204 228.193 220.204 226.628C220.204 226.367 220.166 226.069 220.166 225.808H224.975V222.266H219.197C218.526 220.664 217.743 219.247 217.743 217.16C217.743 214.96 219.309 213.618 221.396 213.618C223.819 213.618 224.975 215.221 224.975 217.271C224.975 217.831 224.938 218.241 224.9 218.464ZM251.964 230.393V225.659H249.43V209.331H243.726L232.059 226.367V230.393H244.435V235.798H249.43V230.393H251.964ZM244.397 216.414H244.435V225.659H238.06L244.397 216.414ZM264.006 236.357C270.455 236.357 273.623 230.579 273.623 222.565C273.623 214.55 270.455 208.772 264.006 208.772C257.557 208.772 254.389 214.55 254.389 222.565C254.389 230.579 257.557 236.357 264.006 236.357ZM264.006 213.916C266.764 213.916 268.106 216.563 268.106 222.565C268.106 228.566 266.764 231.213 264.006 231.213C261.247 231.213 259.905 228.566 259.905 222.565C259.905 216.563 261.247 213.916 264.006 213.916ZM285.702 236.357C292.151 236.357 295.319 230.579 295.319 222.565C295.319 214.55 292.151 208.772 285.702 208.772C279.253 208.772 276.085 214.55 276.085 222.565C276.085 230.579 279.253 236.357 285.702 236.357ZM285.702 213.916C288.461 213.916 289.802 216.563 289.802 222.565C289.802 228.566 288.461 231.213 285.702 231.213C282.944 231.213 281.602 228.566 281.602 222.565C281.602 216.563 282.944 213.916 285.702 213.916ZM304.863 229.796H299.011L296.886 241.091H301.62L304.863 229.796ZM317.081 236.357C323.53 236.357 326.699 230.579 326.699 222.565C326.699 214.55 323.53 208.772 317.081 208.772C310.633 208.772 307.464 214.55 307.464 222.565C307.464 230.579 310.633 236.357 317.081 236.357ZM317.081 213.916C319.84 213.916 321.182 216.563 321.182 222.565C321.182 228.566 319.84 231.213 317.081 231.213C314.323 231.213 312.981 228.566 312.981 222.565C312.981 216.563 314.323 213.916 317.081 213.916ZM338.777 236.357C345.226 236.357 348.395 230.579 348.395 222.565C348.395 214.55 345.226 208.772 338.777 208.772C332.329 208.772 329.16 214.55 329.16 222.565C329.16 230.579 332.329 236.357 338.777 236.357ZM338.777 213.916C341.536 213.916 342.878 216.563 342.878 222.565C342.878 228.566 341.536 231.213 338.777 231.213C336.019 231.213 334.677 228.566 334.677 222.565C334.677 216.563 336.019 213.916 338.777 213.916ZM360.474 236.357C366.923 236.357 370.091 230.579 370.091 222.565C370.091 214.55 366.923 208.772 360.474 208.772C354.025 208.772 350.856 214.55 350.856 222.565C350.856 230.579 354.025 236.357 360.474 236.357ZM360.474 213.916C363.232 213.916 364.574 216.563 364.574 222.565C364.574 228.566 363.232 231.213 360.474 231.213C357.715 231.213 356.373 228.566 356.373 222.565C356.373 216.563 357.715 213.916 360.474 213.916ZM376.168 236.096C378.218 236.096 379.747 234.642 379.747 232.555C379.747 230.505 378.218 228.976 376.168 228.976C374.081 228.976 372.59 230.505 372.59 232.555C372.59 234.642 374.081 236.096 376.168 236.096ZM391.853 236.357C398.302 236.357 401.47 230.579 401.47 222.565C401.47 214.55 398.302 208.772 391.853 208.772C385.404 208.772 382.236 214.55 382.236 222.565C382.236 230.579 385.404 236.357 391.853 236.357ZM391.853 213.916C394.611 213.916 395.953 216.563 395.953 222.565C395.953 228.566 394.611 231.213 391.853 231.213C389.094 231.213 387.753 228.566 387.753 222.565C387.753 216.563 389.094 213.916 391.853 213.916ZM413.549 236.357C419.998 236.357 423.166 230.579 423.166 222.565C423.166 214.55 419.998 208.772 413.549 208.772C407.1 208.772 403.932 214.55 403.932 222.565C403.932 230.579 407.1 236.357 413.549 236.357ZM413.549 213.916C416.308 213.916 417.65 216.563 417.65 222.565C417.65 228.566 416.308 231.213 413.549 231.213C410.791 231.213 409.449 228.566 409.449 222.565C409.449 216.563 410.791 213.916 413.549 213.916ZM448.954 213.954C452.496 213.954 455.18 215.818 455.962 219.135L461.554 217.98C460.137 212.239 455.142 208.772 448.954 208.772C441.35 208.772 435.647 214.252 435.647 222.527C435.647 230.803 441.201 236.208 448.582 236.208C452.458 236.208 455.366 234.754 456.894 232.592V235.798H461.74V221.148H450.296V226.031H456.484C455.739 229.61 452.98 231.325 448.954 231.325C444.183 231.325 441.387 227.746 441.387 222.527C441.387 217.309 444.108 213.954 448.954 213.954ZM467.128 235.798H478.795C484.536 235.798 487.481 232.853 487.481 228.305C487.481 225.472 485.84 223.385 483.417 222.453C485.691 221.446 487.108 219.359 487.108 216.6C487.108 212.575 484.387 209.331 478.31 209.331H467.128V235.798ZM472.421 214.215H478.273C480.659 214.215 481.628 215.519 481.628 217.085C481.628 218.986 480.361 219.955 478.273 219.955H472.421V214.215ZM472.421 224.876H478.646C480.957 224.876 482.001 226.106 482.001 227.895C482.001 229.759 480.957 230.915 478.646 230.915H472.421V224.876ZM497.36 235.798V225.77H503.25C509.401 225.77 512.271 222.192 512.271 217.57C512.271 212.947 509.624 209.331 503.25 209.331H491.918V235.798H497.36ZM503.25 220.775H497.36V214.327H503.25C505.748 214.327 506.829 215.668 506.829 217.57C506.829 219.471 505.748 220.775 503.25 220.775Z" fill="#F7F8FC"/>
<path d="M222.316 176.419V174.299H209.991V176.419H215.047V190.84H217.26V176.419H222.316ZM227.879 191.12C231.676 191.12 234.029 188.184 234.029 184.876C234.029 181.544 231.676 178.586 227.879 178.586C224.081 178.586 221.728 181.544 221.728 184.876C221.728 188.184 224.081 191.12 227.879 191.12ZM223.918 184.876C223.918 182.337 225.525 180.543 227.879 180.543C230.232 180.543 231.839 182.337 231.839 184.876C231.839 187.369 230.232 189.186 227.879 189.186C225.525 189.186 223.918 187.369 223.918 184.876ZM242.025 190.77V188.86C242.025 188.86 241.559 188.977 241.07 188.977C240.022 188.977 239.579 188.417 239.579 187.322V180.659H242.072V178.865H239.579V175.604H237.389V178.865H235.315V180.659H237.389V187.509C237.389 189.722 238.461 190.887 240.674 190.887C241.559 190.887 242.025 190.77 242.025 190.77ZM247.97 191.12C249.834 191.12 251.465 190.421 252.374 189.233C252.607 190.211 253.515 190.934 254.727 190.934C255.262 190.934 255.542 190.84 255.542 190.84V189.07C255.542 189.07 255.449 189.093 255.216 189.093C254.633 189.093 254.307 188.79 254.307 188.114V183.082C254.307 180.38 252.723 178.586 249.228 178.586C245.967 178.586 244.499 180.193 244.103 182.15L246.2 182.523C246.456 181.102 247.528 180.426 249.158 180.426C251.139 180.426 252.164 181.288 252.164 183.036V183.269L248.32 183.804C245.198 184.224 243.777 185.552 243.777 187.532C243.777 189.629 245.081 191.12 247.97 191.12ZM248.553 185.505L252.164 184.969V186.041C252.164 187.695 250.882 189.373 248.343 189.373C246.945 189.373 245.92 188.86 245.92 187.509C245.92 186.507 246.526 185.808 248.553 185.505ZM258.082 190.84H260.272V173.367H258.082V190.84ZM272.24 180.752V173.367H270.05V190.84H272.1V188.86C272.915 190.258 274.383 191.12 276.387 191.12C280.021 191.12 282.002 188.208 282.002 184.876C282.002 181.498 280.021 178.586 276.387 178.586C274.383 178.586 272.962 179.518 272.24 180.752ZM272.17 184.876C272.17 182.43 273.568 180.543 275.967 180.543C278.367 180.543 279.812 182.43 279.812 184.876C279.812 187.252 278.367 189.186 275.967 189.186C273.568 189.186 272.17 187.252 272.17 184.876ZM292.828 178.865V185.855C292.828 188.114 291.5 189.233 289.66 189.233C287.75 189.233 286.957 188.021 286.957 186.111V178.865H284.767V186.484C284.767 189.209 286.258 191.12 289.194 191.12C291.314 191.12 292.526 190.048 292.968 189.186V190.84H295.018V178.865H292.828ZM307.64 173.367V180.752C306.917 179.518 305.519 178.586 303.493 178.586C299.881 178.586 297.901 181.498 297.901 184.876C297.901 188.208 299.881 191.12 303.493 191.12C305.519 191.12 306.987 190.258 307.779 188.86V190.84H309.83V173.367H307.64ZM307.733 184.876C307.733 187.252 306.335 189.186 303.935 189.186C301.536 189.186 300.091 187.252 300.091 184.876C300.091 182.43 301.536 180.543 303.935 180.543C306.335 180.543 307.733 182.43 307.733 184.876ZM318.14 187.299C321.099 187.299 322.94 185.412 322.94 182.942C322.94 182.313 322.8 181.731 322.59 181.195C322.544 181.102 322.474 180.869 322.474 180.496C322.474 179.704 323.056 179.238 323.848 179.238C324.244 179.238 324.431 179.261 324.431 179.261V177.328C324.407 177.328 324.174 177.304 323.802 177.304C322.404 177.304 321.262 178.073 320.866 179.261C320.121 178.842 319.212 178.586 318.14 178.586C315.182 178.586 313.364 180.473 313.364 182.942C313.364 184.177 313.784 185.202 314.576 185.971C313.854 186.367 313.061 187.136 313.061 188.417C313.061 189.116 313.318 189.978 314.063 190.514C313.667 190.77 312.759 191.493 312.759 192.867C312.759 194.964 314.296 196.152 318.28 196.152C322.381 196.152 324.035 194.312 324.035 192.401C324.035 190.584 323.01 189.093 320.191 189.093H316.044C315.368 189.093 314.995 188.72 314.995 188.114C314.995 187.229 315.857 186.88 315.95 186.856C316.579 187.136 317.348 187.299 318.14 187.299ZM318.14 185.435C316.44 185.435 315.414 184.457 315.414 182.942C315.414 181.451 316.44 180.449 318.14 180.449C319.864 180.449 320.889 181.451 320.889 182.942C320.889 184.457 319.864 185.435 318.14 185.435ZM315.671 191.073H320.237C321.239 191.073 321.984 191.469 321.984 192.425C321.984 193.613 320.773 194.242 318.257 194.242C315.717 194.242 314.762 193.729 314.762 192.541C314.762 191.982 315.112 191.353 315.671 191.073ZM336.684 187.672L334.75 187.019C334.191 188.371 332.98 189.209 331.396 189.209C329.159 189.209 327.761 187.649 327.575 185.482H337.104C337.104 185.482 337.127 185.086 337.127 184.76C337.127 181.312 334.89 178.586 331.326 178.586C327.738 178.586 325.408 181.451 325.408 184.853C325.408 188.301 327.621 191.12 331.349 191.12C333.912 191.12 335.845 189.722 336.684 187.672ZM331.326 180.449C333.399 180.449 334.75 181.801 334.96 183.804H327.621C327.901 181.871 329.252 180.449 331.326 180.449ZM345.114 190.77V188.86C345.114 188.86 344.648 188.977 344.159 188.977C343.11 188.977 342.668 188.417 342.668 187.322V180.659H345.16V178.865H342.668V175.604H340.478V178.865H338.404V180.659H340.478V187.509C340.478 189.722 341.549 190.887 343.763 190.887C344.648 190.887 345.114 190.77 345.114 190.77ZM355.853 180.752V173.367H353.663V190.84H355.713V188.86C356.528 190.258 357.996 191.12 360 191.12C363.634 191.12 365.614 188.208 365.614 184.876C365.614 181.498 363.634 178.586 360 178.586C357.996 178.586 356.575 179.518 355.853 180.752ZM355.783 184.876C355.783 182.43 357.181 180.543 359.58 180.543C361.98 180.543 363.424 182.43 363.424 184.876C363.424 187.252 361.98 189.186 359.58 189.186C357.181 189.186 355.783 187.252 355.783 184.876ZM371.945 191.12C373.809 191.12 375.44 190.421 376.348 189.233C376.581 190.211 377.49 190.934 378.701 190.934C379.237 190.934 379.517 190.84 379.517 190.84V189.07C379.517 189.07 379.424 189.093 379.191 189.093C378.608 189.093 378.282 188.79 378.282 188.114V183.082C378.282 180.38 376.698 178.586 373.203 178.586C369.941 178.586 368.474 180.193 368.078 182.15L370.174 182.523C370.431 181.102 371.502 180.426 373.133 180.426C375.113 180.426 376.139 181.288 376.139 183.036V183.269L372.294 183.804C369.173 184.224 367.751 185.552 367.751 187.532C367.751 189.629 369.056 191.12 371.945 191.12ZM372.527 185.505L376.139 184.969V186.041C376.139 187.695 374.857 189.373 372.318 189.373C370.92 189.373 369.895 188.86 369.895 187.509C369.895 186.507 370.5 185.808 372.527 185.505ZM382.057 190.84H384.247V173.367H382.057V190.84ZM391.421 191.12C393.284 191.12 394.915 190.421 395.824 189.233C396.057 190.211 396.965 190.934 398.177 190.934C398.713 190.934 398.992 190.84 398.992 190.84V189.07C398.992 189.07 398.899 189.093 398.666 189.093C398.084 189.093 397.758 188.79 397.758 188.114V183.082C397.758 180.38 396.173 178.586 392.679 178.586C389.417 178.586 387.949 180.193 387.553 182.15L389.65 182.523C389.906 181.102 390.978 180.426 392.609 180.426C394.589 180.426 395.614 181.288 395.614 183.036V183.269L391.77 183.804C388.648 184.224 387.227 185.552 387.227 187.532C387.227 189.629 388.532 191.12 391.421 191.12ZM392.003 185.505L395.614 184.969V186.041C395.614 187.695 394.333 189.373 391.793 189.373C390.395 189.373 389.37 188.86 389.37 187.509C389.37 186.507 389.976 185.808 392.003 185.505ZM403.583 180.589V178.865H401.533V190.84H403.723V183.804C403.723 181.661 405.051 180.473 406.938 180.473C408.825 180.473 409.71 181.684 409.71 183.595V190.84H411.9V183.269C411.9 180.543 410.339 178.586 407.404 178.586C405.26 178.586 404.049 179.727 403.583 180.589ZM420.581 189.186C418.344 189.186 416.853 187.369 416.853 184.876C416.853 182.337 418.344 180.543 420.581 180.543C422.305 180.543 423.517 181.521 423.959 183.012L426.033 182.383C425.357 180.333 423.587 178.586 420.604 178.586C417.017 178.586 414.663 181.475 414.663 184.876C414.663 188.231 417.017 191.12 420.604 191.12C423.587 191.12 425.357 189.373 426.033 187.322L423.959 186.717C423.517 188.184 422.305 189.186 420.581 189.186ZM438.976 187.672L437.043 187.019C436.484 188.371 435.272 189.209 433.688 189.209C431.451 189.209 430.053 187.649 429.867 185.482H439.396C439.396 185.482 439.419 185.086 439.419 184.76C439.419 181.312 437.182 178.586 433.618 178.586C430.03 178.586 427.7 181.451 427.7 184.853C427.7 188.301 429.914 191.12 433.641 191.12C436.204 191.12 438.138 189.722 438.976 187.672ZM433.618 180.449C435.691 180.449 437.043 181.801 437.252 183.804H429.914C430.193 181.871 431.544 180.449 433.618 180.449Z" fill="#F7F8FC"/>
<g clip-path="url(#clip3)">
<path d="M265.738 121.233C265.738 122.659 265.626 124.057 265.43 125.427C265.29 126.377 265.094 127.3 264.87 128.223C264.73 128.782 264.562 129.313 264.394 129.844C264.254 130.291 264.087 130.739 263.919 131.186C263.583 132.053 263.219 132.919 262.799 133.758C262.183 135.016 261.456 136.218 260.644 137.364C256.866 142.704 251.269 146.646 244.777 148.324C243.853 148.547 242.93 148.743 241.978 148.883C240.607 149.078 239.207 149.19 237.78 149.19C236.353 149.19 234.954 149.078 233.582 148.883C232.631 148.743 231.707 148.547 230.784 148.324C224.263 146.646 218.694 142.704 214.916 137.364C214.636 136.973 214.384 136.582 214.133 136.19C213.629 135.407 213.181 134.597 212.761 133.758C212.146 132.5 211.586 131.214 211.166 129.872C210.998 129.341 210.83 128.81 210.69 128.25C210.466 127.328 210.271 126.405 210.131 125.455C209.935 124.085 209.823 122.687 209.823 121.261C209.823 119.835 209.935 118.438 210.131 117.068C210.271 116.117 210.466 115.195 210.69 114.272C210.83 113.713 210.998 113.182 211.166 112.651C211.306 112.203 211.474 111.756 211.642 111.309C211.978 110.442 212.341 109.575 212.761 108.737C213.377 107.478 214.105 106.276 214.916 105.13C218.666 99.7903 224.235 95.8204 230.756 94.171C231.679 93.9473 232.603 93.7516 233.554 93.6119C234.926 93.3882 236.325 93.2764 237.752 93.2764C239.179 93.2764 240.579 93.3882 241.95 93.5839C242.902 93.7237 243.825 93.9194 244.749 94.143C251.269 95.8204 256.866 99.7624 260.616 105.102C260.896 105.494 261.148 105.885 261.4 106.276C261.904 107.059 262.351 107.87 262.771 108.709C263.387 109.967 263.947 111.253 264.366 112.595C264.534 113.126 264.702 113.657 264.842 114.216C265.066 115.139 265.262 116.061 265.402 117.012C265.626 118.41 265.738 119.807 265.738 121.233Z" fill="#002173"/>
<mask id="mask1" mask-type="alpha" maskUnits="userSpaceOnUse" x="209" y="93" width="57" height="57">
<path d="M265.738 121.233C265.738 122.659 265.626 124.057 265.43 125.427C265.29 126.377 265.094 127.3 264.87 128.223C264.73 128.782 264.562 129.313 264.394 129.844C264.254 130.291 264.087 130.739 263.919 131.186C263.583 132.053 263.219 132.919 262.799 133.758C262.183 135.016 261.456 136.218 260.644 137.364C256.866 142.704 251.269 146.646 244.777 148.324C243.853 148.547 242.93 148.743 241.978 148.883C240.607 149.078 239.207 149.19 237.78 149.19C236.353 149.19 234.954 149.078 233.582 148.883C232.631 148.743 231.707 148.547 230.784 148.324C224.263 146.646 218.694 142.704 214.916 137.364C214.636 136.973 214.384 136.582 214.133 136.19C213.629 135.407 213.181 134.597 212.761 133.758C212.146 132.5 211.586 131.214 211.166 129.872C210.998 129.341 210.83 128.81 210.69 128.25C210.466 127.328 210.271 126.405 210.131 125.455C209.935 124.085 209.823 122.687 209.823 121.261C209.823 119.835 209.935 118.438 210.131 117.068C210.271 116.117 210.466 115.195 210.69 114.272C210.83 113.713 210.998 113.182 211.166 112.651C211.306 112.203 211.474 111.756 211.642 111.309C211.978 110.442 212.341 109.575 212.761 108.737C213.377 107.478 214.105 106.276 214.916 105.13C218.666 99.7903 224.235 95.8204 230.756 94.171C231.679 93.9473 232.603 93.7516 233.554 93.6119C234.926 93.3882 236.325 93.2764 237.752 93.2764C239.179 93.2764 240.579 93.3882 241.95 93.5839C242.902 93.7237 243.825 93.9194 244.749 94.143C251.269 95.8204 256.866 99.7624 260.616 105.102C260.896 105.494 261.148 105.885 261.4 106.276C261.904 107.059 262.351 107.87 262.771 108.709C263.387 109.967 263.947 111.253 264.366 112.595C264.534 113.126 264.702 113.657 264.842 114.216C265.066 115.139 265.262 116.061 265.402 117.012C265.626 118.41 265.738 119.807 265.738 121.233Z" fill="#002173"/>
</mask>
<g mask="url(#mask1)">
<path d="M261.269 138.021C261.074 138.329 260.857 138.632 260.64 138.935C260.212 139.52 259.763 140.1 259.278 140.647C258.56 141.47 257.769 142.229 256.926 142.928L241.366 129.641L239.541 128.024L236.803 125.599L235.781 124.694L233.737 122.883L230.692 120.172L225.217 115.322L213.585 105.247C213.781 104.938 213.998 104.635 214.215 104.332C214.643 103.747 215.092 103.168 215.577 102.621C216.295 101.798 217.086 101.039 217.929 100.339L234.138 114.483L235.963 116.1L238.701 118.525L239.723 119.431L241.767 121.241L244.833 123.958L250.309 128.808L261.269 138.021Z" fill="white"/>
<path d="M237.751 122.062L236.3 123.682L235.08 122.588L232.014 119.872L227.555 115.948L223.905 112.714L213.264 103.76C213.692 103.175 213.944 101.978 214.43 101.431L228.625 113.978L232.276 117.212L234.685 119.346L237.751 122.062Z" fill="#C61018"/>
<path d="M261.073 139.872C260.645 140.457 260.196 141.036 259.711 141.583L243.227 126.912L240.818 124.777L237.752 122.061L239.203 120.441L240.423 121.535L243.489 124.251L261.073 139.872Z" fill="#C61018"/>
<path d="M262.734 103.982L254.613 111.427L249.138 116.277L248.115 117.182L246.071 118.993L243.005 121.709L240.267 124.135L238.442 125.751L218.768 143.594C218.478 143.356 218.197 143.611 217.929 143.367C217.391 142.879 216.902 141.86 216.417 141.313C215.699 140.489 215.018 139.634 214.43 138.708L225.876 128.167L229.526 124.934L235.002 120.083L236.024 119.178L238.068 117.367L241.134 114.651L243.872 112.226L245.697 110.609L258.375 99.1014C258.665 99.3397 258.934 99.5837 259.202 99.8277C259.74 100.316 260.241 100.836 260.726 101.383C261.46 102.179 262.125 103.062 262.734 103.982Z" fill="white"/>
<path d="M239.195 123.676L237.349 125.299L235.633 126.82L233.339 128.879L217.114 143.758C216.576 143.271 216.076 142.75 215.59 142.203L228.618 130.144L232.269 126.909L234.678 124.774L235.7 123.868L237.745 122.057L239.195 123.676Z" fill="#C61018"/>
<path d="M258.436 100.716C258.973 101.204 259.474 101.724 259.96 102.271L250.436 110.971L246.786 114.205L244.377 116.339L243.355 117.244L241.311 119.055L239.86 117.435L241.706 115.813L243.422 114.293L245.721 112.256L258.436 100.716Z" fill="#C61018"/>
<path d="M259.571 122.062C259.571 123.174 259.484 124.264 259.331 125.332C259.222 126.073 259.069 126.792 258.894 127.511H243.207V143.183C242.487 143.357 241.767 143.51 241.025 143.619C239.956 143.771 238.865 143.858 237.752 143.858C236.64 143.858 235.549 143.771 234.48 143.619C233.738 143.51 233.018 143.357 232.298 143.183V127.511H216.61C216.436 126.792 216.283 126.073 216.174 125.332C216.021 124.264 215.934 123.174 215.934 122.062C215.934 120.951 216.021 119.861 216.174 118.793C216.283 118.052 216.436 117.332 216.61 116.613H232.298V100.964C233.018 100.789 233.738 100.637 234.48 100.528C235.549 100.353 236.64 100.266 237.752 100.266C238.865 100.266 239.956 100.353 241.025 100.506C241.767 100.615 242.487 100.767 243.207 100.942V116.613H258.873C259.047 117.332 259.2 118.052 259.309 118.793C259.484 119.861 259.571 120.951 259.571 122.062Z" fill="white"/>
<path d="M266.568 122.062C266.568 123.174 266.48 124.264 266.328 125.332C266.218 126.073 266.066 126.792 265.891 127.511H243.207V150.172C242.487 150.346 241.767 150.499 241.025 150.608C239.956 150.761 238.865 150.848 237.753 150.848C236.64 150.848 235.549 150.761 234.48 150.608C233.738 150.499 233.018 150.346 232.298 150.172V127.511H209.767C209.592 126.792 209.439 126.073 209.33 125.332C209.178 124.264 209.09 123.174 209.09 122.062C209.09 120.951 209.178 119.861 209.33 118.793C209.439 118.052 209.592 117.332 209.767 116.613H232.298L232.298 93.2986C233.018 93.1242 233.738 92.9716 234.48 92.8626C235.549 92.6883 236.64 92.6011 237.753 92.6011C238.865 92.6011 239.956 92.6883 241.026 92.8408C241.767 92.9498 242.487 93.1024 243.207 93.2768L243.207 116.613H265.869C266.044 117.332 266.197 118.052 266.306 118.793C266.48 119.861 266.568 120.951 266.568 122.062Z" fill="white"/>
<path d="M266.568 122.062C266.568 123.173 266.48 124.263 266.328 125.331H241.026V150.607C239.956 150.76 238.866 150.847 237.753 150.847C236.64 150.847 235.549 150.76 234.48 150.607V125.331H209.196C209.043 124.263 208.956 123.173 208.956 122.062C208.956 120.95 209.043 119.86 209.196 118.792H234.48V92.1113C235.549 91.9588 236.64 91.8716 237.753 91.8716C238.866 91.8716 239.956 91.9588 241.026 92.1113V118.792H266.328C266.48 119.86 266.568 120.95 266.568 122.062Z" fill="#C61018"/>
</g>
<path d="M262.988 130.152L262.987 130.156C259.317 140.578 249.376 148.025 237.723 148.025C226.069 148.025 216.129 140.578 212.458 130.156L212.457 130.152C211.467 127.37 210.931 124.371 210.931 121.233C210.931 118.096 211.467 115.097 212.457 112.314L212.458 112.311C216.129 101.888 226.069 94.4413 237.723 94.4413C249.376 94.4413 259.317 101.888 262.987 112.311L262.988 112.314C263.978 115.097 264.515 118.096 264.515 121.233C264.515 124.371 263.978 127.37 262.988 130.152Z" stroke="#BCBCC9" stroke-width="2.32979"/>
</g>
<defs>
<filter id="filter0_d" x="459.053" y="111.914" width="414.702" height="400.723" filterUnits="userSpaceOnUse" color-interpolation-filters="sRGB">
<feFlood flood-opacity="0" result="BackgroundImageFix"/>
<feColorMatrix in="SourceAlpha" type="matrix" values="0 0 0 0 0 0 0 0 0 0 0 0 0 0 0 0 0 0 127 0" result="hardAlpha"/>
<feOffset/>
<feGaussianBlur stdDeviation="27.9574"/>
<feColorMatrix type="matrix" values="0 0 0 0 0 0 0 0 0 0 0 0 0 0 0 0 0 0 0.1 0"/>
<feBlend mode="normal" in2="BackgroundImageFix" result="effect1_dropShadow"/>
<feBlend mode="normal" in="SourceGraphic" in2="effect1_dropShadow" result="shape"/>
</filter>
<filter id="filter1_d" x="0.0851059" y="111.914" width="414.702" height="400.723" filterUnits="userSpaceOnUse" color-interpolation-filters="sRGB">
<feFlood flood-opacity="0" result="BackgroundImageFix"/>
<feColorMatrix in="SourceAlpha" type="matrix" values="0 0 0 0 0 0 0 0 0 0 0 0 0 0 0 0 0 0 127 0" result="hardAlpha"/>
<feOffset/>
<feGaussianBlur stdDeviation="27.9574"/>
<feColorMatrix type="matrix" values="0 0 0 0 0 0 0 0 0 0 0 0 0 0 0 0 0 0 0.1 0"/>
<feBlend mode="normal" in2="BackgroundImageFix" result="effect1_dropShadow"/>
<feBlend mode="normal" in="SourceGraphic" in2="effect1_dropShadow" result="shape"/>
</filter>
<filter id="filter2_d" x="116.574" y="0.0851059" width="631.372" height="549.83" filterUnits="userSpaceOnUse" color-interpolation-filters="sRGB">
<feFlood flood-opacity="0" result="BackgroundImageFix"/>
<feColorMatrix in="SourceAlpha" type="matrix" values="0 0 0 0 0 0 0 0 0 0 0 0 0 0 0 0 0 0 127 0" result="hardAlpha"/>
<feOffset/>
<feGaussianBlur stdDeviation="27.9574"/>
<feColorMatrix type="matrix" values="0 0 0 0 0 0 0 0 0 0 0 0 0 0 0 0 0 0 0.1 0"/>
<feBlend mode="normal" in2="BackgroundImageFix" result="effect1_dropShadow"/>
<feBlend mode="normal" in="SourceGraphic" in2="effect1_dropShadow" result="shape"/>
</filter>
<clipPath id="clip0">
<rect width="81.5426" height="81.5426" fill="white" transform="translate(671.064 270.339)"/>
</clipPath>
<clipPath id="clip1">
<rect width="81.5426" height="81.5426" fill="white" transform="translate(121.234 270.339)"/>
</clipPath>
<clipPath id="clip2">
<path d="M209.766 307.616C209.766 297.322 218.11 288.978 228.404 288.978V288.978C238.698 288.978 247.042 297.322 247.042 307.616V438.084C247.042 448.378 238.698 456.722 228.404 456.722V456.722C218.11 456.722 209.766 448.378 209.766 438.084V307.616Z" fill="white"/>
</clipPath>
<clipPath id="clip3">
<rect width="55.9149" height="55.9149" fill="white" transform="translate(209.766 93.2764)"/>
</clipPath>
</defs>
</svg>
